<svg width="52" height="52" viewBox="0 0 52 52" fill="none" xmlns="http://www.w3.org/2000/svg">
<g clip-path="url(#clip0_14651_12698)">
<path d="M49.3852 25.6867C49.0027 24.5618 48.3221 23.4782 47.4301 22.6029C47.4301 22.52 47.4301 22.4362 47.3455 22.3533C48.1952 22.7283 49.0036 23.3115 49.5986 24.02C49.5986 22.8121 49.216 21.6033 48.4932 20.6451C47.7704 19.6869 46.7928 18.8954 45.6874 18.3536C46.3247 18.3951 46.963 18.5204 47.5579 18.7701C48.1529 19.0198 48.7056 19.3119 49.216 19.6454C48.9181 18.3122 48.1962 17.1458 47.1331 16.229C46.1132 15.3537 44.7954 14.7705 43.4353 14.6452C44.7531 14.3955 46.1555 14.6452 47.3032 15.3537C46.6227 14.1458 45.6451 13.1867 44.4552 12.4791C43.2652 11.812 41.9051 11.437 40.5017 11.4794H40.4594C41.7772 11.1873 43.1373 11.1873 44.4129 11.4794C43.5631 10.688 42.5846 10.1047 41.5225 9.68734C40.4594 9.31234 39.3117 9.10412 38.164 9.14558C38.759 8.64527 39.4818 8.35413 40.247 8.27028C41.1822 8.14497 42.1175 8.35319 42.8826 8.85349C41.2245 7.1453 39.9922 6.51968 37.9093 6.64499C36.8895 6.7703 35.9542 7.1029 35.1458 7.64466C36.4636 6.27 37.4412 4.60325 37.9093 2.76974C37.6969 3.06182 37.0596 3.85327 36.9317 4.02004C36.082 4.97825 34.9766 5.68678 33.7434 6.06177C32.5111 6.39531 31.8306 6.22854 30.5551 6.56208L30.4705 6.47917C32.5534 4.14535 35.0189 2.14601 37.7392 0.603638C34.5508 1.43654 31.5759 2.97891 29.0248 5.0621C30.7252 3.39536 32.638 1.93684 34.7632 0.811862H34.4653C34.3807 0.811862 34.2951 0.853319 34.1673 0.894776C31.2346 1.77007 28.4711 3.22859 26.1335 5.18647C24.6455 6.39437 23.3277 7.81143 22.18 9.3114C22.0954 9.39432 21.7129 9.3114 21.6696 9.3114C21.287 8.93641 21.4995 7.89434 21.3716 8.14497C21.0737 8.68673 20.6488 10.8952 20.2662 11.3117C18.7783 12.8531 17.6729 13.8113 16.1426 15.3537C15.8447 15.6458 15.8447 16.1037 15.8024 16.4372L15.5476 17.8119L16.9933 16.6454C17.2057 16.4787 17.546 16.1875 17.843 15.9784C17.8007 15.4781 18.0132 15.2284 18.8206 15.1031C18.6927 15.4781 18.6927 15.8945 18.4803 16.1027C17.7575 16.8942 16.8222 17.4774 15.8447 17.8524C15.5899 17.9353 15.3342 18.0192 15.1218 18.2274C14.4413 18.8106 13.804 19.3938 13.1235 19.9771C12.4429 20.5188 12.3583 20.3935 12.1459 19.7688C12.1036 19.6859 12.1036 19.5606 12.1459 19.4767C11.3385 20.5188 11.3385 22.8517 12.1459 23.3105L12.6563 21.7691C13.2936 22.1441 13.209 22.0188 12.7842 22.3523C12.614 22.5191 12.4862 22.6859 12.4016 22.8941C12.3593 23.1438 12.4439 23.4358 12.614 23.6441C12.8687 23.8108 13.1244 23.9362 13.4214 24.0191C13.6762 23.6441 13.8463 23.2691 14.102 22.9355C14.3567 22.5605 14.6124 22.227 14.8671 21.8935C15.1218 21.6014 15.4198 21.3517 15.6745 21.0606L15.7591 21.1435C15.5044 21.4356 15.2487 21.7267 14.994 22.0602C14.3134 23.0599 14.2711 22.8102 15.0786 23.6017C15.1209 23.6431 15.1632 23.6846 15.1632 23.727C14.9507 23.727 14.7806 23.6855 14.6105 23.6017C14.2702 23.352 14.1 23.6017 13.9732 23.8099C13.803 24.0181 13.7607 24.3102 14.101 24.477C14.8238 24.852 15.6736 24.9349 16.4819 24.7691C16.7367 24.7276 16.9923 24.6437 17.2471 24.5194L16.9068 24.2697C15.7168 23.3529 15.9715 22.4776 17.3739 21.853C19.1166 21.0201 21.0294 20.4783 22.9422 20.2277C23.7074 20.1024 24.5148 20.0194 25.3232 19.9356C25.3232 19.7688 25.2386 19.6435 25.1953 19.5606C24.8974 18.8521 24.3456 18.8106 25.1953 18.7692H26.5132C26.5132 18.7692 28.8508 18.8945 28.8508 18.8521V18.8106H28.9354V18.6438C28.9354 18.6024 28.8931 18.6024 28.8931 18.5609C28.4683 17.6856 28.2981 16.7274 28.3827 15.8107C28.425 15.5186 28.4673 15.186 28.5106 14.8939C28.5951 14.5604 28.3827 14.5604 28.128 14.6018C27.7031 14.6847 28.2981 14.3521 28.3827 14.2683V14.143C28.425 14.0601 28.425 13.9762 28.3827 13.8933C28.1703 13.393 28.0002 12.8936 27.9156 12.3519C27.831 12.0183 27.831 11.6848 27.9156 11.3937C28.0002 11.0601 28.1703 10.8104 28.426 10.5608C28.2981 10.8528 28.1712 11.1025 28.0857 11.4361C28.0011 12.186 28.2135 12.8946 28.6807 13.4778C28.8931 13.7699 29.021 14.1025 29.0633 14.436C29.1055 14.7695 29.0633 15.1445 28.9354 15.4781C28.7653 15.9784 28.7653 16.5616 28.9354 17.0619C29.2757 16.8951 29.6582 16.7698 30.0408 16.7284C31.869 16.6454 33.6963 17.1863 35.1843 18.2283C37.2672 19.8536 38.6696 22.2289 39.1377 24.8115C39.2223 25.1864 39.2656 25.52 39.2656 25.895V28.3532C40.2431 25.1864 40.073 21.77 38.8407 18.6448C39.2233 19.3948 39.5212 20.1862 39.776 20.9786C40.4988 22.9374 40.7112 25.0206 40.4565 27.0624C40.2018 29.1041 39.479 31.0629 38.3313 32.8126C35.3554 37.4378 30.7223 39.0207 25.3232 39.0207C28.7662 40.3954 32.6351 40.4792 36.1628 39.2289C38.6283 38.396 40.8391 36.9375 42.5817 34.9787C41.6888 37.4369 40.3287 39.6868 38.5004 41.5618C36.6722 43.4368 34.4624 44.8953 31.9969 45.895C29.5314 46.8532 26.8957 47.312 24.2601 47.1867C21.6244 47.0614 19.0311 46.3953 16.6511 45.2279H16.6934C13.6329 43.7279 11.0395 41.3941 9.25458 38.5609C7.42635 35.7277 6.49109 32.4357 6.4488 29.0608C6.4065 25.6858 7.34176 22.3938 9.12674 19.5191C10.9117 16.6445 13.4205 14.3107 16.481 12.7693C16.7357 10.4778 19.3713 7.68612 22.6875 6.18614C18.2669 6.60259 14.101 8.26934 10.6147 10.9781C7.12934 13.687 4.53598 17.2701 3.04803 21.3536C1.60236 25.4371 1.34764 29.8955 2.36749 34.1043C3.38733 38.3131 5.59812 42.1874 8.78647 45.2298L8.82876 45.2712C11.847 48.1883 15.5448 50.23 19.6684 51.1882C23.792 52.1464 28.128 51.9796 32.166 50.7303C36.2041 49.4385 39.8173 47.1057 42.6231 43.9804C45.4289 40.8551 47.2561 37.0223 47.979 32.8964C48.0636 32.7297 48.1491 32.6467 48.4461 32.7711V31.0215L48.574 30.98L49.1267 31.8129C49.2545 30.7294 49.2112 29.6044 48.9988 28.5209C49.2968 28.8544 49.466 29.1041 49.6361 29.3123C49.8485 28.1044 49.7639 26.8541 49.3814 25.6877L49.3852 25.6867Z" fill="url(#paint0_linear_14651_12698)"/>
</g>
<defs>
<linearGradient id="paint0_linear_14651_12698" x1="1.76769" y1="7.72192" x2="60.1837" y2="51.1596" gradientUnits="userSpaceOnUse">
<stop stop-color="#EC4125"/>
<stop offset="1" stop-color="#EC4424"/>
</linearGradient>
<clipPath id="clip0_14651_12698">
<rect width="51.2" height="51.2" fill="white" transform="translate(0.149902 0.603638)"/>
</clipPath>
</defs>
</svg>
