<svg width="196" height="200" viewBox="0 0 196 200" fill="none" xmlns="http://www.w3.org/2000/svg">
<path d="M186.356 158.843C186.356 158.3 186.509 157.758 186.742 157.215C186.974 156.672 187.359 156.207 187.745 155.82C188.207 155.433 188.748 155.122 189.287 154.889C189.905 154.656 190.523 154.502 191.139 154.502C191.754 154.502 192.451 154.579 193.068 154.889C193.609 155.122 194.148 155.433 194.611 155.82C195.073 156.207 195.382 156.672 195.614 157.215C195.846 157.758 196 158.3 196 158.92C196 159.54 195.846 160.082 195.614 160.625C195.382 161.169 194.996 161.633 194.611 162.02C194.148 162.408 193.607 162.718 193.068 162.951C192.451 163.184 191.833 163.338 191.139 163.338C190.521 163.338 189.826 163.261 189.287 162.951C188.746 162.718 188.207 162.408 187.745 162.02C187.282 161.633 186.974 161.169 186.742 160.625C186.509 160.161 186.356 159.54 186.356 158.843Z" fill="url(#paint0_linear_643_9596)"/>
<path d="M22.4624 199.997C19.4526 199.997 16.5213 199.454 13.665 198.448C11.0407 197.517 8.64856 196.045 6.56523 194.107C4.55867 192.247 2.86095 189.999 1.70413 187.519C0.547305 184.883 -0.0703673 182.016 0.00640531 179.072C-0.0703673 176.282 0.547305 173.569 1.62736 171.012C2.70741 168.455 4.40513 166.206 6.48846 164.347C8.57179 162.488 10.964 161.093 13.5882 160.162C16.4427 159.154 19.3758 158.613 22.3856 158.69C25.3955 158.69 28.3268 159.154 31.1831 160.162C33.8073 161.093 36.1995 162.488 38.3596 164.347C40.3661 166.129 41.9871 168.299 43.0671 170.702C44.224 173.259 44.8416 176.049 44.8416 178.84C44.8416 180.856 44.6096 182.792 44.0704 184.731C43.0671 188.295 41.1373 191.552 38.3596 194.031C36.9707 195.193 35.4265 196.201 33.8073 196.977C32.1096 197.829 30.2583 198.527 28.4053 198.916C26.3987 199.613 24.4707 199.923 22.4642 200.001L22.4624 199.997ZM22.4624 196.664C24.2369 196.664 26.0114 196.276 27.5556 195.346C29.0212 194.415 30.3333 193.176 31.2599 191.702C32.3399 189.997 33.0343 188.138 33.4967 186.199C34.0376 183.874 34.2679 181.55 34.2679 179.147C34.2679 176.744 34.0359 174.498 33.4967 172.249C33.0343 170.39 32.3399 168.529 31.2599 166.902C30.3333 165.507 29.023 164.266 27.5556 163.415C26.0131 162.563 24.2369 162.097 22.4624 162.174C20.6879 162.097 18.9134 162.561 17.3692 163.415C15.9036 164.266 14.5915 165.43 13.665 166.902C12.5849 168.53 11.8905 170.39 11.4281 172.249C10.8872 174.496 10.6569 176.822 10.6569 179.147C10.6569 181.473 10.8889 183.876 11.4281 186.199C11.8137 188.138 12.5849 189.997 13.665 191.702C14.5915 193.174 15.8251 194.492 17.3692 195.346C18.9117 196.276 20.6879 196.741 22.4624 196.664Z" fill="black"/>
<path d="M72.4642 175.505L71.3842 174.653C71.0753 174.42 70.7665 174.189 70.3809 174.033C70.072 173.878 69.6864 173.8 69.3008 173.645H68.0655C67.4478 173.645 66.8301 173.722 66.2142 173.955C65.5965 174.189 65.0574 174.42 64.5165 174.807C63.9756 175.195 63.5132 175.582 63.1276 176.048C62.742 176.514 62.3564 176.979 62.1243 177.597V199.143H53.1733V171.938L59.4233 168.605L62.1243 171.551C63.0508 170.543 64.2077 169.692 65.443 168.994C66.5998 168.374 67.9119 168.063 69.2241 168.063C70.4594 168.063 71.6162 168.297 72.773 168.838C73.7763 169.303 74.6243 169.923 75.474 170.62L72.4642 175.503V175.505Z" fill="black"/>
<path d="M92.9883 199.685C90.7515 199.685 88.5128 199.298 86.4295 198.523C84.4997 197.826 82.7252 196.741 81.2596 195.346C79.7939 193.951 78.6353 192.323 77.7874 190.463C76.9394 188.604 76.552 186.589 76.6305 184.573C76.6305 182.404 77.0161 180.232 77.8659 178.218C78.6371 176.359 79.7957 174.654 81.2613 173.18C82.727 171.785 84.5015 170.623 86.4313 169.925C88.5146 169.151 90.7532 168.685 92.9901 168.764C95.227 168.764 97.4656 169.151 99.5489 169.925C101.479 170.623 103.253 171.708 104.796 173.103C106.261 174.421 107.42 176.126 108.191 177.908C109.039 179.768 109.426 181.783 109.426 183.799C109.426 185.968 109.041 188.061 108.191 189.999C107.42 191.937 106.261 193.643 104.796 195.115C103.253 196.587 101.555 197.75 99.5489 198.525C97.4656 199.3 95.227 199.687 92.9901 199.687L92.9883 199.685ZM93.9916 196.042C94.8396 196.042 95.6126 195.732 96.2285 195.267C96.9997 194.647 97.6174 193.949 98.0798 193.097C98.6207 192.09 99.0063 191.082 99.3151 189.997C99.6239 188.756 99.7007 187.517 99.7007 186.277C99.7007 184.494 99.5472 182.633 99.3151 180.851C99.083 179.302 98.6207 177.828 97.9262 176.433C97.3085 175.271 96.4606 174.263 95.4573 173.487C94.3772 172.712 93.0651 172.325 91.753 172.402C90.9818 172.402 90.2873 172.712 89.6697 173.176C88.9752 173.797 88.3576 174.494 87.8952 175.269C87.3543 176.2 86.9687 177.207 86.6598 178.215C86.351 179.377 86.1974 180.618 86.1974 181.858C86.1974 183.718 86.351 185.502 86.7383 187.284C87.0472 188.834 87.5863 190.385 88.2808 191.78C88.8984 192.941 89.6697 193.949 90.6729 194.726C91.6762 195.5 92.833 195.966 93.9916 196.043V196.042Z" fill="black"/>
<path d="M136.509 178.063L136.047 176.745C135.738 176.048 135.353 175.428 134.89 174.807C134.349 174.11 133.655 173.489 132.807 173.102C131.88 172.559 130.8 172.327 129.643 172.327C128.717 172.327 127.792 172.56 127.019 173.025C126.248 173.568 125.554 174.187 125.089 174.963C124.472 175.894 124.086 176.901 123.854 177.909C123.545 178.994 123.392 180.156 123.392 181.32C123.392 182.948 123.545 184.497 124.009 186.125C124.318 187.52 124.857 188.915 125.552 190.156C126.17 191.241 127.017 192.171 128.021 192.869C128.947 193.566 130.104 193.876 131.261 193.876C132.187 193.876 133.112 193.643 133.962 193.256C134.812 192.869 135.504 192.325 136.122 191.628C136.816 190.93 137.357 190.079 137.897 189.225C138.437 188.295 138.977 187.287 139.362 186.279L143.606 187.441C143.143 189.223 142.449 190.929 141.522 192.48C140.674 193.952 139.593 195.193 138.359 196.355C137.124 197.362 135.658 198.214 134.192 198.757C132.571 199.301 130.874 199.609 129.176 199.609C127.169 199.609 125.163 199.222 123.311 198.447C121.537 197.672 119.993 196.588 118.604 195.27C117.292 193.875 116.212 192.324 115.441 190.541C114.669 188.759 114.284 186.821 114.284 184.805C114.284 183.41 114.437 181.938 114.825 180.543C115.21 179.225 115.751 177.907 116.367 176.668C117.061 175.506 117.909 174.422 118.836 173.414C119.762 172.406 120.843 171.554 121.999 170.857C123.156 170.159 124.468 169.616 125.78 169.229C127.093 168.841 128.558 168.608 129.947 168.608C131.259 168.608 132.648 168.686 133.96 168.919C134.963 169.073 135.967 169.383 136.893 169.849C137.741 170.314 138.591 170.857 139.285 171.554C140.057 172.329 140.828 173.183 141.446 174.111L136.508 178.063H136.509Z" fill="black"/>
<path d="M168.763 178.684C168.84 177.443 168.531 176.281 167.992 175.196C167.839 174.809 167.53 174.576 167.144 174.345C166.835 174.112 166.373 174.035 165.987 174.035C165.525 174.035 165.061 174.112 164.675 174.268C164.134 174.422 163.518 174.655 162.978 174.965C162.36 175.275 161.742 175.586 161.126 175.973C160.51 176.36 159.969 176.825 159.429 177.291V199.147H150.324L150.015 157.449L156.42 154.115H159.121V171.786C160.51 170.778 162.054 170.004 163.75 169.46C165.371 168.996 166.991 168.686 168.688 168.686C169.845 168.686 171.004 168.919 172.084 169.383C173.164 169.848 174.167 170.468 175.017 171.322C175.788 172.173 176.483 173.181 176.868 174.268C177.33 175.352 177.563 176.593 177.563 177.755L177.716 199.069H168.688V178.686H168.765L168.763 178.684Z" fill="black"/>
<path d="M186.742 171.941L193.069 168.607H195.77V199.066H186.819V171.941H186.742Z" fill="black"/>
<path d="M159.268 66.6366C158.277 63.6485 156.513 60.7691 154.2 58.4453C154.2 58.2245 154.2 58.0019 153.98 57.7811C156.183 58.7765 158.277 60.3275 159.821 62.208C159.821 58.9973 158.83 55.7884 156.956 53.242C155.082 50.6956 152.549 48.5925 149.682 47.1537C151.335 47.2641 152.989 47.5971 154.531 48.2613C156.073 48.9255 157.506 49.7001 158.829 50.5851C158.057 47.0433 156.183 43.943 153.428 41.5088C150.783 39.1849 147.367 37.6339 143.84 37.3027C147.257 36.6385 150.893 37.3027 153.87 39.1849C152.106 35.9743 149.572 33.4296 146.486 31.5474C143.399 29.7756 139.873 28.7801 136.236 28.8905H136.127C139.543 28.1159 143.069 28.1159 146.376 28.8905C144.172 26.7875 141.637 25.2382 138.882 24.1306C136.127 23.1352 133.152 22.5814 130.175 22.6918C131.717 21.3634 133.591 20.5888 135.575 20.368C138.001 20.0367 140.424 20.5888 142.408 21.9172C138.11 17.3781 134.914 15.7185 129.514 16.0497C126.868 16.3809 124.445 17.2677 122.351 18.7066C125.767 15.0543 128.303 10.6256 129.514 5.75532C128.962 6.52994 127.31 8.63299 126.978 9.07638C124.775 11.6228 121.91 13.5033 118.713 14.5005C115.517 15.3855 113.754 14.9439 110.448 15.8289L110.228 15.6081C115.628 9.40935 122.02 4.09567 129.074 0C120.809 2.21345 113.095 6.30912 106.482 11.8436C110.889 7.41672 115.85 3.54187 121.36 0.553801H120.589C120.369 0.553801 120.147 0.664208 119.818 0.774617C112.214 3.09848 105.049 6.97334 98.9895 12.1766C95.1317 15.3873 91.7153 19.1499 88.7404 23.1352C88.5205 23.356 87.5277 23.1352 87.4178 23.1352C86.4267 22.1398 86.9764 19.3725 86.6466 20.035C85.8754 21.4738 84.7726 27.3413 83.7816 28.4471C79.9238 32.5428 77.0587 35.0892 73.091 39.1849C72.3198 39.9595 72.3198 41.1775 72.2098 42.0626L71.5486 45.7149L75.2947 42.6146C75.8461 42.1712 76.7272 41.3966 77.4984 40.8428C77.3885 39.5144 77.9399 38.8502 80.0337 38.519C79.7039 39.5144 79.7039 40.622 79.1525 41.1758C77.2786 43.2788 74.855 44.8281 72.3198 45.8253C71.6585 46.0461 70.9972 46.2687 70.4458 46.8207C68.6818 48.3699 67.0294 49.9209 65.2654 51.4702C63.5014 52.909 63.2815 52.5778 62.7302 50.9164C62.6202 50.6956 62.6202 50.3626 62.7302 50.1418C60.6364 52.909 60.6364 59.1077 62.7302 60.3257L64.0528 56.2301C65.7051 57.2255 65.4853 56.8943 64.3825 57.7793C63.9411 58.2227 63.6113 58.6643 63.3915 59.2181C63.2815 59.8823 63.5014 60.657 63.9428 61.2108C64.6041 61.6542 65.2654 61.9854 66.0366 62.2062C66.6979 61.2108 67.1394 60.2136 67.8007 59.3285C68.4619 58.3331 69.1232 57.4463 69.7845 56.5613C70.4458 55.7867 71.217 55.1225 71.8783 54.3478L72.0982 54.5687C71.4369 55.3433 70.7756 56.1179 70.1143 57.0047C68.3503 59.6615 68.2404 58.9973 70.3342 61.1004C70.4441 61.2108 70.554 61.3212 70.554 61.4316C70.0026 61.4316 69.5629 61.3212 69.1215 61.1004C68.2404 60.4361 67.7989 61.1004 67.4691 61.6542C67.0277 62.208 66.9178 62.9826 67.7989 63.426C69.6729 64.4214 71.8766 64.644 73.9704 64.2006C74.6317 64.0902 75.293 63.8694 75.9543 63.5364L75.0731 62.8722C71.9865 60.4361 72.6478 58.1123 76.2858 56.4526C80.8049 54.2392 85.7637 52.8004 90.7225 52.1361C92.7064 51.8049 94.8002 51.5823 96.894 51.3615C96.894 50.9181 96.6741 50.5869 96.5642 50.3661C95.793 48.4839 94.3605 48.3735 96.5642 48.263H99.9806C99.9806 48.263 106.042 48.5943 106.042 48.4839V48.3735H106.262V47.9301C106.262 47.8197 106.152 47.8197 106.152 47.7092C105.049 45.3854 104.61 42.839 104.829 40.4029C104.939 39.6283 105.049 38.7433 105.159 37.9669C105.379 37.0819 104.829 37.0819 104.168 37.1923C103.065 37.4131 104.61 36.5281 104.829 36.3073V35.976C104.939 35.7552 104.939 35.5326 104.829 35.3118C104.278 33.9834 103.838 32.655 103.617 31.2161C103.397 30.3311 103.397 29.4443 103.617 28.6697C103.837 27.7847 104.278 27.1205 104.939 26.4563C104.61 27.2309 104.278 27.8951 104.058 28.7801C103.838 30.7728 104.388 32.655 105.601 34.2042C106.152 34.9788 106.482 35.8639 106.592 36.7506C106.702 37.6374 106.592 38.6329 106.262 39.5179C105.821 40.8463 105.821 42.3956 106.262 43.724C107.143 43.2806 108.136 42.9494 109.127 42.8389C113.866 42.6181 118.605 44.057 122.461 46.8242C127.861 51.1407 131.498 57.4498 132.71 64.3128C132.93 65.3082 133.04 66.195 133.04 67.1904V73.7204C135.575 65.3082 135.134 56.2318 131.937 47.9301C132.928 49.9227 133.701 52.0257 134.363 54.1288C136.236 59.3321 136.788 64.8666 136.127 70.2889C135.465 75.713 133.591 80.9145 130.616 85.564C122.902 97.851 110.889 102.057 96.894 102.057C105.821 105.709 115.85 105.932 124.996 102.611C131.388 100.397 137.119 96.5226 141.637 91.3211C139.323 97.851 135.795 103.829 131.058 108.81C126.319 113.79 120.589 117.665 114.196 120.322C107.804 122.868 100.972 124.085 94.1389 123.753C87.3061 123.422 80.5833 121.65 74.4118 118.55H74.5218C66.5863 114.565 59.8652 108.366 55.2361 100.839C50.4972 93.3119 48.0736 84.5668 47.9619 75.6008C47.852 66.6349 50.2756 57.8897 54.9046 50.2522C59.5336 42.6146 66.0349 36.4159 73.9704 32.3202C74.6317 26.2319 81.4644 18.8152 90.0595 14.8317C78.5977 15.9393 67.7989 20.3662 58.7607 27.5604C49.7242 34.7545 43.0013 44.2743 39.1435 55.1225C35.3974 65.9707 34.7361 77.8143 37.3795 88.9937C40.0247 100.173 45.7547 110.467 54.02 118.548L54.1299 118.659C61.9537 126.407 71.5416 131.831 82.2322 134.377C92.9228 136.924 104.163 136.48 114.632 133.159C125.101 129.728 134.469 123.529 141.743 115.227C149.017 106.926 153.756 96.7417 155.629 85.7831C155.848 85.3397 156.07 85.1188 156.841 85.4518V80.8023L157.171 80.6919L158.603 82.9054C158.933 80.0277 158.823 77.0379 158.274 74.1602C159.045 75.0453 159.486 75.7095 159.926 76.2633C160.477 73.0526 160.256 69.7333 159.265 66.6331L159.268 66.6366Z" fill="url(#paint1_linear_643_9596)"/>
<defs>
<linearGradient id="paint0_linear_643_9596" x1="186.382" y1="158.92" x2="196.05" y2="158.92" gradientUnits="userSpaceOnUse">
<stop stop-color="#EC4125"/>
<stop offset="1" stop-color="#EC4424"/>
</linearGradient>
<linearGradient id="paint1_linear_643_9596" x1="35.8161" y1="18.9116" x2="189.874" y2="130.707" gradientUnits="userSpaceOnUse">
<stop stop-color="#EC4125"/>
<stop offset="1" stop-color="#EC4424"/>
</linearGradient>
</defs>
</svg>
